<?xml version="1.0" encoding="UTF-8" standalone="no"?><!DOCTYPE svg PUBLIC "-//W3C//DTD SVG 1.1//EN" "http://www.w3.org/Graphics/SVG/1.1/DTD/svg11.dtd"><svg width="100%" height="100%" viewBox="0 0 10800 7200" version="1.1" xmlns="http://www.w3.org/2000/svg" xmlns:xlink="http://www.w3.org/1999/xlink" xml:space="preserve" xmlns:serif="http://www.serif.com/" style="fill-rule:evenodd;clip-rule:evenodd;stroke-linecap:round;stroke-linejoin:round;stroke-miterlimit:1.5;"><path d="M5400,6292.397c0,0 -1193.237,-799.876 -1193.237,-1211.387c0,-2.19 1211.387,0 1211.387,0c0,0 1193.237,1.12 1193.237,3.151c0,411.511 -1211.387,1208.236 -1211.387,1208.236Z" style="fill:#0c0016;stroke:#000;stroke-width:1px;"/><path d="M6876.789,4887.591l-2935.427,0c0,0 -1030.073,1038.024 -1030.073,1030.073c0,-2584.956 1665.191,-5586.531 2497.787,-5586.531c832.596,-0 2497.787,3001.574 2497.787,5586.531c0,7.951 -1030.073,-1030.073 -1030.073,-1030.073Zm-1467.714,-2615.645c-87.886,117.483 -784.502,1057.236 -784.502,1328.054c0,270.818 696.616,380.168 784.502,392.886c87.886,-12.718 784.502,-122.068 784.502,-392.886c0,-270.818 -696.616,-1210.571 -784.502,-1328.054Z" style="stroke:#000;stroke-width:1px;"/><path d="M8069.473,2728.637c54.364,526.861 0,3563.212 0,3563.212c0,0 -70.713,583.358 785.486,583.358c856.199,0 346.861,-5318.244 346.861,-5660.147c0,-341.903 -791.807,-952.555 -1125.407,-877.664c-333.6,74.891 -876.194,1327.008 -876.194,1327.008c0,0 543.066,960.438 543.066,1592.409c0,6.349 304.542,-737.942 326.187,-528.175Z" style="fill:#0c0016;stroke:#000;stroke-width:1px;"/><path d="M2748.677,2725.486c-54.364,526.861 0,3563.212 0,3563.212c0,0 70.713,583.358 -785.486,583.358c-856.199,0 -346.861,-5318.244 -346.861,-5660.147c-0,-341.903 791.807,-952.555 1125.407,-877.664c333.6,74.891 876.194,1327.008 876.194,1327.008c0,0 -543.066,960.438 -543.066,1592.409c-0,6.349 -304.542,-737.942 -326.187,-528.175Z" style="fill:#0c0016;stroke:#000;stroke-width:1px;"/></svg>